<svg xmlns="http://www.w3.org/2000/svg" width="24" height="24" viewBox="0 0 24 24">
  <g id="ic_nv_cart_H24" transform="translate(-337 -57)">
    <rect id="사각형_4295" data-name="사각형 4295" width="24" height="24" transform="translate(337 57)" fill="none"/>
    <g id="사각형_4294" data-name="사각형 4294" transform="translate(339 63)" fill="none" stroke="#000" stroke-width="2">
      <path d="M0,0H20a0,0,0,0,1,0,0V12a6,6,0,0,1-6,6H6a6,6,0,0,1-6-6V0A0,0,0,0,1,0,0Z" stroke="none"/>
      <path d="M1,1H19a0,0,0,0,1,0,0V12a5,5,0,0,1-5,5H6a5,5,0,0,1-5-5V1A0,0,0,0,1,1,1Z" fill="none"/>
    </g>
    <path id="패스_14336" data-name="패스 14336" d="M8,14.5V8.565A4.033,4.033,0,0,0,4,4.5,4.033,4.033,0,0,0,0,8.565V14.5" transform="translate(345 54.5)" fill="none" stroke="#000" stroke-width="2"/>
  </g>
</svg>
