<svg xmlns="http://www.w3.org/2000/svg" xmlns:xlink="http://www.w3.org/1999/xlink" width="24" height="24" viewBox="0 0 24 24"><defs><clipPath id="a"><rect width="24" height="24" transform="translate(-0.315)" fill="#fff"/></clipPath></defs><g transform="translate(0.315)" opacity="0.2"><g clip-path="url(#a)"><path d="M0,0H24.385V24.385H0Z" fill="rgba(0,0,0,0)"/><path d="M22.294,4.011a18.232,18.232,0,0,1-3.044,1,3.85,3.85,0,0,0-4.444-.746,3.983,3.983,0,0,0-2.659,3.784V9.065A9.537,9.537,0,0,1,4.029,5.014s-4.243,7.527,4.059,11.14A10.014,10.014,0,0,1,2,18.179a13.646,13.646,0,0,0,10.181,1.536,11.155,11.155,0,0,0,7.763-7.84,13.99,13.99,0,0,0,.5-3.8c0-.252,1.532-2.807,1.845-4.064Z" transform="translate(0.046 0.089)"/></g></g></svg>