<svg xmlns="http://www.w3.org/2000/svg" width="72" height="40" viewBox="0 0 72 40">
  <g id="eatz_logo" transform="translate(-1171.044 -511.815)">
    <g id="그룹_2907" data-name="그룹 2907" transform="translate(1181.77 511.815)">
      <path id="패스_15089" data-name="패스 15089" d="M1272.775,511.815c-3.458,0-5.528,2.132-5.528,4.766s2.07,4.761,5.528,4.761,5.533-2.128,5.533-4.761S1276.233,511.815,1272.775,511.815Zm0,8.506c-1.656,0-2.918-1.679-2.918-3.74s1.262-3.74,2.918-3.74,2.918,1.673,2.918,3.74S1274.434,520.321,1272.775,520.321Z" transform="translate(-1259.154 -511.815)" fill="#00a5b9"/>
      <path id="패스_15090" data-name="패스 15090" d="M1326.188,514.668h3.642V522.4h2.745v-7.729h3.071v-1.054h-9.457Z" transform="translate(-1306.565 -513.263)" fill="#00a5b9"/>
      <path id="패스_15091" data-name="패스 15091" d="M1379.659,514.668h3.069V522.4h2.742v-7.729h3.644v-1.054h-9.455Z" transform="translate(-1349.576 -513.263)" fill="#00a5b9"/>
      <path id="패스_15092" data-name="패스 15092" d="M1228.508,520.823v-7.209h-2.632v7.736a1.047,1.047,0,0,0,1.048,1.047h6.73v-1.052h-4.62A.525.525,0,0,1,1228.508,520.823Z" transform="translate(-1225.876 -513.263)" fill="#00a5b9"/>
      <path id="패스_15093" data-name="패스 15093" d="M1438.774,514.653h5.064v-1.039h-7.177a1.045,1.045,0,0,0-1.049,1.044v6.692a1.047,1.047,0,0,0,1.049,1.046h7.177v-1.038h-5.064a.521.521,0,0,1-.523-.521v-2.589h5.505v-1.031h-5.505v-2.044A.519.519,0,0,1,1438.774,514.653Z" transform="translate(-1394.584 -513.263)" fill="#00a5b9"/>
    </g>
    <path id="패스_15094" data-name="패스 15094" d="M1171.047,593.772c0-3.535,0-6.331,0-9.866a2.737,2.737,0,0,1,1.861-2.792,2.309,2.309,0,0,1,.711-.141c4.91-.008,8.337-.024,13.246.007a2.327,2.327,0,0,1,.289,4.634,7.788,7.788,0,0,1-.987.065c-3.158,0-4.834,0-7.992,0-1.443,0-1.575.136-1.575,1.561,0,1.059-.007,1.378,0,2.438.01.965.359,1.362,1.332,1.415.888.048,1.779.022,2.669.023,1.752,0,2.02.005,3.772,0a3.131,3.131,0,0,1,1.692.4,2.282,2.282,0,0,1-.506,4.179,4.272,4.272,0,0,1-1.226.173c-2.512.015-3.542.006-6.054.008-1.432,0-1.682.25-1.682,1.664,0,1.174,0,1.607,0,2.781.005,1.259.274,1.538,1.549,1.542,2.8.01,4.116,0,6.916.006a18.505,18.505,0,0,1,1.892.058,2.31,2.31,0,0,1,2,3.268,2.482,2.482,0,0,1-2.01,1.363,3.191,3.191,0,0,1-.515.031c-4.666,0-7.849,0-12.514,0a2.57,2.57,0,0,1-2.52-1.474,3.87,3.87,0,0,1-.334-1.571C1171.034,600.045,1171.047,597.279,1171.047,593.772Z" transform="translate(0 -55.646)" fill="#00a5b9"/>
    <path id="패스_15095" data-name="패스 15095" d="M1454.824,626.45c-2.11,0-4.22.015-6.33,0a2.561,2.561,0,0,1-2.786-2.4,3.109,3.109,0,0,1,.739-2.394q2.6-3.176,5.219-6.332c1.14-1.38,2.287-2.754,3.416-4.143.139-.171.345-.366.273-.627-.093-.332-.479-.266-.721-.271-1.478-.026-3.659.017-5.136-.032a3.922,3.922,0,0,1-1.567-.367,2.11,2.11,0,0,1-1.132-2.344,2.437,2.437,0,0,1,1.688-2.132,3.515,3.515,0,0,1,1.137-.193c3.316-.014,7.333-.02,10.649,0a3.064,3.064,0,0,1,2.661,1.14,2.862,2.862,0,0,1-.211,3.47c-.738.949-1.526,1.86-2.3,2.784q-3.288,3.942-6.581,7.882c-.064.077-.127.155-.184.238-.245.368-.162.668.348.706.171.013.344.008.517.008,2.182,0,4.364-.015,6.546.012a4.459,4.459,0,0,1,1.469.263,2.127,2.127,0,0,1,1.419,2.179,2.431,2.431,0,0,1-1.552,2.31,4.479,4.479,0,0,1-1.426.242c-2.052.026-4.105.011-6.158.011Z" transform="translate(-220.916 -75.148)" fill="#00a5b9"/>
    <path id="패스_15096" data-name="패스 15096" d="M1389.5,603.927a2.914,2.914,0,0,0-2.353-1.474,4,4,0,0,1-3.638-4.01c-.118-2.069-.072-4.148-.074-6.222,0-.6.315-.87.927-.891.631-.022,2.66.017,3.285-.052a2.559,2.559,0,0,0,2.288-3.159,2.637,2.637,0,0,0-2.723-2.1c-.519,0-2.43-.006-2.948-.007a.851.851,0,0,1-.851-.85v-1.079a2.694,2.694,0,0,0-2.467-2.722,2.627,2.627,0,0,0-2.792,2.619v5.27c-.014,2.381-.105,9.552,0,11.576a7.02,7.02,0,0,0,2.746,5.159,8.052,8.052,0,0,0,4.037,1.68,6.049,6.049,0,0,0,2.976-.15A2.65,2.65,0,0,0,1389.5,603.927Z" transform="translate(-166.559 -55.965)" fill="#00a5b9"/>
    <path id="패스_15097" data-name="패스 15097" d="M1282.556,625.286a13.512,13.512,0,0,1,.219-2.634,9.786,9.786,0,0,0,.1-2.68,9.861,9.861,0,1,0-19.622,1.98,10.02,10.02,0,0,0,10.819,8.937,9.548,9.548,0,0,0,4.742-1.839h0a3.816,3.816,0,0,0,1.308,1.61,2.637,2.637,0,0,0,2.46.422,2.152,2.152,0,0,0,1-3.433,4.066,4.066,0,0,1-1.024-2.354Z" transform="translate(-74.128 -79.892)" fill="#00a5b9"/>
    <g id="그룹_2908" data-name="그룹 2908" transform="translate(1196.136 534.952)">
      <ellipse id="타원_666" data-name="타원 666" cx="1.499" cy="3.255" rx="1.499" ry="3.255" transform="translate(0 0)" fill="#fff"/>
      <ellipse id="타원_667" data-name="타원 667" cx="1.499" cy="3.255" rx="1.499" ry="3.255" transform="translate(3.015 0)" fill="#fff"/>
      <ellipse id="타원_668" data-name="타원 668" cx="0.75" cy="1.627" rx="0.75" ry="1.627" transform="translate(0 1.448)" fill="#00a5b9"/>
      <ellipse id="타원_669" data-name="타원 669" cx="0.75" cy="1.627" rx="0.75" ry="1.627" transform="translate(3.015 1.448)" fill="#00a5b9"/>
    </g>
  </g>
</svg>
