<svg xmlns="http://www.w3.org/2000/svg" width="47" height="15" viewBox="0 0 47 15">
  <g id="그룹_3747" data-name="그룹 3747" transform="translate(-1623 -18)">
    <path id="패스_15108" data-name="패스 15108" d="M2.478-8.848A.538.538,0,0,1,2-9.072.916.916,0,0,1,1.848-9.6.916.916,0,0,1,2-10.136a.538.538,0,0,1,.476-.224h7.784a.538.538,0,0,1,.476.224.916.916,0,0,1,.154.532.916.916,0,0,1-.154.532.538.538,0,0,1-.476.224H7.28v.1a1.33,1.33,0,0,0,.252.833,2.687,2.687,0,0,0,.91.665q.672.336,1.239.6t1.2.539a.573.573,0,0,1,.343.427.915.915,0,0,1-.077.6.916.916,0,0,1-.42.42.652.652,0,0,1-.574.014q-.714-.322-1.281-.581T7.658-5.824A4.1,4.1,0,0,1,6.727-6.4a1.137,1.137,0,0,1-.343-.49H6.37a1.081,1.081,0,0,1-.35.532,4.3,4.3,0,0,1-.938.574q-.644.322-1.211.581T2.59-4.62a.652.652,0,0,1-.574-.014.9.9,0,0,1-.42-.434A.929.929,0,0,1,1.5-5.684a.574.574,0,0,1,.357-.434q.63-.28,1.2-.539t1.239-.6a2.687,2.687,0,0,0,.91-.665A1.33,1.33,0,0,0,5.46-8.75v-.1Zm-1.4,6.692A.538.538,0,0,1,.6-2.38a.916.916,0,0,1-.154-.532A.916.916,0,0,1,.6-3.444a.538.538,0,0,1,.476-.224H11.662a.538.538,0,0,1,.476.224.916.916,0,0,1,.154.532.916.916,0,0,1-.154.532.538.538,0,0,1-.476.224h-4.4V1.5a.64.64,0,0,1-.273.574,1.157,1.157,0,0,1-1.246,0A.64.64,0,0,1,5.474,1.5V-2.156Zm13.79-3.43a1.332,1.332,0,0,1-.931-.252,1.255,1.255,0,0,1-.259-.91V-9.31a1.255,1.255,0,0,1,.259-.91,1.332,1.332,0,0,1,.931-.252h6.384a1.332,1.332,0,0,1,.931.252,1.255,1.255,0,0,1,.259.91v2.562a1.255,1.255,0,0,1-.259.91,1.332,1.332,0,0,1-.931.252ZM20.342-7.07a.285.285,0,0,0,.322-.322V-8.666a.285.285,0,0,0-.322-.322H15.778a.285.285,0,0,0-.322.322v1.274a.285.285,0,0,0,.322.322ZM12.768-3.038a.538.538,0,0,1-.476-.224.892.892,0,0,1-.154-.518.916.916,0,0,1,.154-.532.538.538,0,0,1,.476-.224H23.352a.538.538,0,0,1,.476.224.916.916,0,0,1,.154.532.892.892,0,0,1-.154.518.538.538,0,0,1-.476.224H19.138v1.652a.571.571,0,0,1-.259.525,1.185,1.185,0,0,1-.637.161,1.157,1.157,0,0,1-.623-.161.571.571,0,0,1-.259-.525V-3.038Zm9.3,3.5a.538.538,0,0,1,.476.224.916.916,0,0,1,.154.532.916.916,0,0,1-.154.532.538.538,0,0,1-.476.224H14.84a1.332,1.332,0,0,1-.931-.252,1.255,1.255,0,0,1-.259-.91v-2.17a.64.64,0,0,1,.273-.574,1.121,1.121,0,0,1,.637-.182,1.1,1.1,0,0,1,.623.182.64.64,0,0,1,.273.574V.14a.285.285,0,0,0,.322.322ZM27.65-7.056a3.907,3.907,0,0,1,1.3.2,2.806,2.806,0,0,1,.98.567,2.454,2.454,0,0,1,.616.889,3,3,0,0,1,.217,1.155,3,3,0,0,1-.217,1.155,2.454,2.454,0,0,1-.616.889,2.806,2.806,0,0,1-.98.567,3.907,3.907,0,0,1-1.3.2,3.907,3.907,0,0,1-1.3-.2,2.806,2.806,0,0,1-.98-.567,2.454,2.454,0,0,1-.616-.889,3,3,0,0,1-.217-1.155A3,3,0,0,1,24.759-5.4a2.454,2.454,0,0,1,.616-.889,2.806,2.806,0,0,1,.98-.567A3.907,3.907,0,0,1,27.65-7.056Zm-.9-2.212v-.966a.64.64,0,0,1,.273-.574,1.1,1.1,0,0,1,.623-.182,1.1,1.1,0,0,1,.623.182.64.64,0,0,1,.273.574v.966h2.2a.538.538,0,0,1,.476.224.916.916,0,0,1,.154.532.916.916,0,0,1-.154.532.538.538,0,0,1-.476.224H24.388a.538.538,0,0,1-.476-.224.916.916,0,0,1-.154-.532.916.916,0,0,1,.154-.532.538.538,0,0,1,.476-.224Zm.9,6.412a1.536,1.536,0,0,0,1.078-.371,1.306,1.306,0,0,0,.406-1.015,1.306,1.306,0,0,0-.406-1.015,1.536,1.536,0,0,0-1.078-.371,1.536,1.536,0,0,0-1.078.371,1.306,1.306,0,0,0-.406,1.015,1.306,1.306,0,0,0,.406,1.015A1.536,1.536,0,0,0,27.65-2.856Zm6.3-3.836h1.316a.552.552,0,0,1,.49.224.94.94,0,0,1,.154.546.974.974,0,0,1-.154.553.546.546,0,0,1-.49.231H33.95V.518a.64.64,0,0,1-.273.574,1.074,1.074,0,0,1-.609.182,1.1,1.1,0,0,1-.623-.182.64.64,0,0,1-.273-.574V-10.206a.64.64,0,0,1,.273-.574,1.1,1.1,0,0,1,.623-.182,1.074,1.074,0,0,1,.609.182.64.64,0,0,1,.273.574Zm2.87-1.792a.538.538,0,0,1-.476-.224.916.916,0,0,1-.154-.532.94.94,0,0,1,.154-.546.538.538,0,0,1,.476-.224h4.214a1.332,1.332,0,0,1,.931.252,1.255,1.255,0,0,1,.259.91v1.554a7.355,7.355,0,0,1-.07,1.064,3.466,3.466,0,0,1-.259.9,3.589,3.589,0,0,1-.525.833,6.482,6.482,0,0,1-.882.854q-.546.448-1.323.966T37.324-1.512a.659.659,0,0,1-.609.063.975.975,0,0,1-.483-.371,1.035,1.035,0,0,1-.168-.588.6.6,0,0,1,.308-.532Q37.324-3.514,38-3.955t1.134-.791a5.119,5.119,0,0,0,.714-.644,2.336,2.336,0,0,0,.392-.6,2.093,2.093,0,0,0,.168-.623,6.946,6.946,0,0,0,.035-.742v-.812a.285.285,0,0,0-.322-.322Zm9.422,9a.64.64,0,0,1-.273.574,1.121,1.121,0,0,1-.637.182,1.1,1.1,0,0,1-.623-.182.64.64,0,0,1-.273-.574V-10.206a.64.64,0,0,1,.273-.574,1.1,1.1,0,0,1,.623-.182,1.121,1.121,0,0,1,.637.182.64.64,0,0,1,.273.574Z" transform="translate(1623 30)" fill="#fff"/>
    <rect id="사각형_5844" data-name="사각형 5844" width="47" height="15" transform="translate(1623 18)" fill="#fff" opacity="0"/>
  </g>
</svg>
