<svg xmlns="http://www.w3.org/2000/svg" width="16" height="16" viewBox="0 0 16 16"><g transform="translate(-390.001 -140)"><rect width="16" height="16" transform="translate(390.001 140)" fill="#fff" opacity="0"/><path d="M-11955.011-1096.573H-11958a2,2,0,0,1-2-2v-5.586a2.97,2.97,0,0,1,.633-1.843.089.089,0,0,1,.027-.072c.742-.807,3.626-3.6,3.652-3.623a3.088,3.088,0,0,1,2.172-.878,3.074,3.074,0,0,1,2.157.869l3.7,3.632a.2.2,0,0,1,.075.138,2.98,2.98,0,0,1,.582,1.777v5.586a2,2,0,0,1-2,2h-3.01l.012-2.927a.5.5,0,0,0-.5-.5h-2a.5.5,0,0,0-.5.5l-.011,2.927Z" transform="translate(12351.001 1252)" fill="#999"/></g></svg>