<svg xmlns="http://www.w3.org/2000/svg" width="24" height="24" viewBox="0 0 24 24">
  <g id="ic_mypage_h24" transform="translate(-50 -748)">
    <rect id="사각형_4524" data-name="사각형 4524" width="24" height="24" transform="translate(50 748)" fill="none"/>
    <g id="그룹_911" data-name="그룹 911">
      <g id="타원_356" data-name="타원 356" transform="translate(57 750)" fill="#fff" stroke="#000" stroke-width="2">
        <circle cx="5" cy="5" r="5" stroke="none"/>
        <circle cx="5" cy="5" r="4" fill="none"/>
      </g>
      <g id="패스_14441" data-name="패스 14441" transform="translate(52 762)" fill="#fff">
        <path d="M 10 9 C 7.085309982299805 9 4.837399959564209 8.674079895019531 3.318710088729858 8.031290054321289 C 1.73678994178772 7.361740112304688 1 6.398530006408691 1 5 C 1 3.601469993591309 1.73678994178772 2.638259887695312 3.318710088729858 1.968709945678711 C 4.837399959564209 1.325919985771179 7.085309982299805 1 10 1 C 12.9146900177002 1 15.16259956359863 1.325919985771179 16.68128967285156 1.968709945678711 C 18.26321029663086 2.638259887695312 19 3.601469993591309 19 5 C 19 6.398530006408691 18.26321029663086 7.361740112304688 16.68128967285156 8.031290054321289 C 15.16259956359863 8.674079895019531 12.9146900177002 9 10 9 Z" stroke="none"/>
        <path d="M 10 2 C 7.21996021270752 2 5.103179931640625 2.299310207366943 3.708480834960938 2.889619827270508 C 2.206979751586914 3.525139808654785 2 4.27947998046875 2 5 C 2 5.72052001953125 2.206979751586914 6.474860191345215 3.708480834960938 7.110380172729492 C 5.103179931640625 7.700690269470215 7.21996021270752 8 10 8 C 12.78003978729248 8 14.89682006835938 7.700690269470215 16.29151916503906 7.110380172729492 C 17.79302024841309 6.474860191345215 18 5.72052001953125 18 5 C 18 4.27947998046875 17.79302024841309 3.525139808654785 16.29151916503906 2.889619827270508 C 14.89682006835938 2.299310207366943 12.78003978729248 2 10 2 M 10 0 C 15.52285003662109 0 20 1.127470016479492 20 5 C 20 8.872529983520508 15.52285003662109 10 10 10 C 4.477149963378906 10 0 8.872529983520508 0 5 C 0 1.127470016479492 4.477149963378906 0 10 0 Z" stroke="none" fill="#000"/>
      </g>
    </g>
  </g>
</svg>
